<svg width="41" height="49" viewBox="0 0 41 49" fill="none" xmlns="http://www.w3.org/2000/svg">
<path d="M20.5334 26.7333C23.9575 26.7333 26.7334 23.9575 26.7334 20.5333C26.7334 17.1092 23.9575 14.3333 20.5334 14.3333C17.1092 14.3333 14.3334 17.1092 14.3334 20.5333C14.3334 23.9575 17.1092 26.7333 20.5334 26.7333Z" stroke="white" stroke-width="7" stroke-linecap="round" stroke-linejoin="round"/>
<path d="M20.5333 4C16.1484 4 11.9431 5.7419 8.8425 8.8425C5.7419 11.9431 4 16.1484 4 20.5333C4 24.4435 4.8308 27.002 7.1 29.8333L20.5333 45.3333L33.9667 29.8333C36.2359 27.002 37.0667 24.4435 37.0667 20.5333C37.0667 16.1484 35.3248 11.9431 32.2242 8.8425C29.1236 5.7419 24.9182 4 20.5333 4V4Z" stroke="white" stroke-width="7" stroke-linecap="round" stroke-linejoin="round"/>
</svg>
