<svg width="141" height="141" viewBox="0 0 141 141" fill="none" xmlns="http://www.w3.org/2000/svg">
<path d="M70.5 30.8437C72.7342 30.8433 74.963 31.0647 77.1534 31.5047C84.0755 32.8304 90.4412 36.2007 95.4287 41.1803C100.416 46.16 103.797 52.5204 105.133 59.4403L106.279 65.3888L112.227 66.4463C118.235 67.4796 123.633 70.7393 127.345 75.5755C131.056 80.4117 132.809 86.4691 132.253 92.54C131.697 98.6109 128.873 104.249 124.345 108.331C119.817 112.413 113.917 114.638 107.821 114.563H33.0469C26.951 114.638 21.0508 112.413 16.5226 108.331C11.9944 104.249 9.17086 98.6109 8.61491 92.54C8.05897 86.4691 9.81149 80.4117 13.5231 75.5755C17.2346 70.7393 22.6325 67.4796 28.6406 66.4463L34.545 65.3888L35.6906 59.4403C37.2435 51.3606 41.5737 44.0786 47.9311 38.8558C54.2885 33.6331 62.2725 30.7987 70.5 30.8437V30.8437ZM70.5 22.0312C60.245 22.0227 50.3081 25.5915 42.4017 32.1225C34.4953 38.6535 29.1145 47.7378 27.1866 57.81C19.0717 59.2792 11.7994 63.7294 6.79806 70.2865C1.7967 76.8436 -0.572273 85.0338 0.156434 93.2483C0.885142 101.463 4.65887 109.108 10.7364 114.682C16.8139 120.257 24.756 123.357 33.0028 123.375H107.909C116.156 123.357 124.098 120.257 130.175 114.682C136.253 109.108 140.027 101.463 140.755 93.2483C141.484 85.0338 139.115 76.8436 134.114 70.2865C129.112 63.7294 121.84 59.2792 113.725 57.81C112.066 49.1465 107.844 41.1805 101.607 34.9431C95.3692 28.7057 87.4032 24.484 78.7397 22.8244C76.0231 22.3088 73.265 22.0433 70.5 22.0312V22.0312Z" fill="white"/>
</svg>
