<svg width="138" height="138" viewBox="0 0 138 138" fill="none" xmlns="http://www.w3.org/2000/svg">
<path d="M101.344 94.875H36.6561C29.7406 94.8312 23.0854 92.2325 17.97 87.5786C12.8546 82.9248 9.64011 76.5442 8.94457 69.6636C8.24902 62.783 10.1215 55.8882 14.202 50.3047C18.2825 44.7212 24.2831 40.8432 31.0499 39.4162C32.9116 30.7331 37.6947 22.951 44.6011 17.3685C51.5075 11.7859 60.1194 8.74055 68.9999 8.74055C77.8804 8.74055 86.4923 11.7859 93.3987 17.3685C100.305 22.951 105.088 30.7331 106.95 39.4162C113.717 40.8432 119.717 44.7212 123.798 50.3047C127.878 55.8882 129.751 62.783 129.055 69.6636C128.36 76.5442 125.145 82.9248 120.03 87.5786C114.914 92.2325 108.259 94.8312 101.344 94.875ZM68.9999 17.25C61.6411 17.2573 54.5385 19.9523 49.0271 24.8284C43.5157 29.7045 39.9752 36.4257 39.0711 43.7287L38.8124 47.4375H35.1036C29.9568 47.6434 25.1025 49.8854 21.6087 53.6703C18.1149 57.4553 16.2678 62.4731 16.4736 67.62C16.6795 72.7669 18.9215 77.6211 22.7065 81.1149C26.4914 84.6087 31.5093 86.4559 36.6561 86.25H101.344C106.49 86.4559 111.508 84.6087 115.293 81.1149C119.078 77.6211 121.32 72.7669 121.526 67.62C121.732 62.4731 119.885 57.4553 116.391 53.6703C112.897 49.8854 108.043 47.6434 102.896 47.4375H99.1874L98.7561 43.9012C97.8947 36.5964 94.3958 29.8573 88.9167 24.9499C83.4375 20.0425 76.3552 17.3045 68.9999 17.25Z" fill="white"/>
<path d="M60.3749 129.375C59.6983 129.383 59.0307 129.22 58.4342 128.901C57.4185 128.384 56.6488 127.486 56.2932 126.403C55.9377 125.32 56.0252 124.14 56.5367 123.122L65.1617 105.872C65.3897 105.324 65.7281 104.83 66.1559 104.419C66.5836 104.008 67.0915 103.69 67.6477 103.485C68.204 103.279 68.7967 103.19 69.3887 103.224C69.9808 103.258 70.5595 103.414 71.0887 103.681C71.618 103.949 72.0863 104.323 72.4645 104.779C72.8427 105.236 73.1227 105.766 73.2868 106.336C73.451 106.906 73.4959 107.503 73.4186 108.091C73.3414 108.679 73.1437 109.245 72.838 109.753L64.213 127.003C63.8546 127.714 63.3063 128.312 62.6289 128.731C61.9514 129.15 61.1712 129.373 60.3749 129.375Z" fill="white"/>
<path d="M86.2499 129.375C85.5733 129.383 84.9057 129.22 84.3092 128.901C83.2935 128.384 82.5238 127.486 82.1682 126.403C81.8127 125.32 81.9002 124.14 82.4117 123.122L91.0367 105.872C91.2647 105.324 91.6031 104.83 92.0309 104.419C92.4586 104.008 92.9665 103.69 93.5227 103.485C94.079 103.279 94.6717 103.19 95.2637 103.224C95.8558 103.258 96.4345 103.414 96.9637 103.681C97.493 103.949 97.9613 104.323 98.3395 104.779C98.7177 105.236 98.9977 105.766 99.1618 106.336C99.326 106.906 99.3709 107.503 99.2936 108.091C99.2164 108.679 99.0187 109.245 98.713 109.753L90.088 127.003C89.7296 127.714 89.1813 128.312 88.5039 128.731C87.8264 129.15 87.0462 129.373 86.2499 129.375Z" fill="white"/>
<path d="M34.4999 129.375C33.8233 129.383 33.1557 129.22 32.5592 128.901C31.5435 128.384 30.7738 127.486 30.4182 126.403C30.0627 125.32 30.1502 124.14 30.6617 123.122L39.2867 105.872C39.5147 105.324 39.8531 104.83 40.2809 104.419C40.7086 104.008 41.2165 103.69 41.7727 103.485C42.329 103.279 42.9217 103.19 43.5137 103.224C44.1058 103.258 44.6845 103.414 45.2137 103.681C45.743 103.949 46.2113 104.323 46.5895 104.779C46.9677 105.236 47.2477 105.766 47.4118 106.336C47.576 106.906 47.6209 107.503 47.5436 108.091C47.4664 108.679 47.2687 109.245 46.963 109.753L38.338 127.003C37.9796 127.714 37.4313 128.312 36.7539 128.731C36.0764 129.15 35.2962 129.373 34.4999 129.375Z" fill="white"/>
</svg>
