<svg width="131" height="131" viewBox="0 0 131 131" fill="none" xmlns="http://www.w3.org/2000/svg">
<path d="M65.5 49.1455C68.7387 49.1455 71.9046 50.1059 74.5975 51.9052C77.2903 53.7045 79.3892 56.2619 80.6285 59.254C81.8679 62.2462 82.1922 65.5386 81.5604 68.7151C80.9285 71.8915 79.369 74.8093 77.0789 77.0994C74.7888 79.3894 71.8711 80.949 68.6946 81.5808C65.5182 82.2127 62.2257 81.8884 59.2336 80.649C56.2414 79.4096 53.684 77.3108 51.8847 74.6179C50.0854 71.9251 49.125 68.7591 49.125 65.5205C49.1304 61.1792 50.8574 57.0173 53.9271 53.9476C56.9969 50.8779 61.1588 49.1509 65.5 49.1455ZM65.5 40.958C60.642 40.958 55.8931 42.3985 51.8538 45.0975C47.8145 47.7965 44.6663 51.6326 42.8072 56.1208C40.9481 60.609 40.4617 65.5477 41.4095 70.3124C42.3572 75.077 44.6966 79.4537 48.1317 82.8888C51.5668 86.3239 55.9434 88.6633 60.7081 89.611C65.4728 90.5588 70.4115 90.0723 74.8997 88.2133C79.3879 86.3542 83.224 83.206 85.923 79.1667C88.6219 75.1274 90.0625 70.3785 90.0625 65.5205C90.0625 59.0061 87.4747 52.7585 82.8683 48.1522C78.262 43.5458 72.0144 40.958 65.5 40.958Z" fill="white"/>
<path d="M22.0818 27.8907L27.8703 22.098L42.223 36.4507L36.4345 42.2393L22.0818 27.8907Z" fill="white"/>
<path d="M8.1875 61.4267H28.6562V69.6142H8.1875V61.4267Z" fill="white"/>
<path d="M22.0818 103.15L36.4345 88.7975L42.223 94.5902L27.8703 108.939L22.0818 103.15Z" fill="white"/>
<path d="M61.4062 102.364H69.5938V122.833H61.4062V102.364Z" fill="white"/>
<path d="M88.7812 94.5902L94.5698 88.7975L108.923 103.15L103.134 108.939L88.7812 94.5902Z" fill="white"/>
<path d="M102.344 61.4267H122.812V69.6142H102.344V61.4267Z" fill="white"/>
<path d="M88.7812 36.4507L103.134 22.098L108.923 27.8907L94.5698 42.2393L88.7812 36.4507Z" fill="white"/>
<path d="M61.4062 8.20799H69.5938V28.6767H61.4062V8.20799Z" fill="white"/>
</svg>
